{
    "asset" : {
        "generator" : "Khronos glTF Blender I/O v3.4.50",
        "version" : "2.0"
    },
    "scene" : 0,
    "scenes" : [
        {
            "name" : "Scene",
            "nodes" : [
                8
            ]
        }
    ],
    "nodes" : [
        {
            "mesh" : 0,
            "name" : "mesh_1",
            "translation" : [
                0,
                7.62939453125e-06,
                0
            ]
        },
        {
            "children" : [
                0
            ],
            "name" : "Cube.041_1",
            "rotation" : [
                0,
                0.9866527318954468,
                0,
                0.16283872723579407
            ],
            "scale" : [
                0.19135408103466034,
                0.19135397672653198,
                0.19135408103466034
            ],
            "translation" : [
                -4.223894119262695,
                13.1644926071167,
                -3.0954387187957764
            ]
        },
        {
            "mesh" : 1,
            "name" : "mesh_2",
            "translation" : [
                2.86102294921875e-06,
                7.62939453125e-06,
                0
            ]
        },
        {
            "children" : [
                2
            ],
            "name" : "Cube.042_2",
            "rotation" : [
                0,
                0.9866527318954468,
                0,
                0.16283872723579407
            ],
            "scale" : [
                0.19135408103466034,
                0.19135397672653198,
                0.19135408103466034
            ],
            "translation" : [
                -5.7335429191589355,
                13.1644926071167,
                -4.960299491882324
            ]
        },
        {
            "mesh" : 2,
            "name" : "mesh_3",
            "translation" : [
                0,
                7.62939453125e-06,
                0
            ]
        },
        {
            "children" : [
                4
            ],
            "name" : "Cube.043_3",
            "rotation" : [
                0,
                0.9866527318954468,
                0,
                0.16283872723579407
            ],
            "scale" : [
                0.19135408103466034,
                0.19135397672653198,
                0.19135408103466034
            ],
            "translation" : [
                -2.388633966445923,
                13.1644926071167,
                -5.019501686096191
            ]
        },
        {
            "children" : [
                1,
                3,
                5
            ],
            "name" : "GLTF_SceneRootNode",
            "rotation" : [
                0.70710688829422,
                0,
                0,
                0.7071066498756409
            ]
        },
        {
            "children" : [
                6
            ],
            "name" : "root"
        },
        {
            "children" : [
                7
            ],
            "name" : "Sketchfab_model",
            "rotation" : [
                -0.70710688829422,
                0,
                0,
                0.7071066498756409
            ],
            "scale" : [
                1.7053418159484863,
                1.7053420543670654,
                1.7053420543670654
            ]
        }
    ],
    "animations" : [
        {
            "channels" : [
                {
                    "sampler" : 0,
                    "target" : {
                        "node" : 1,
                        "path" : "translation"
                    }
                },
                {
                    "sampler" : 1,
                    "target" : {
                        "node" : 0,
                        "path" : "weights"
                    }
                },
                {
                    "sampler" : 2,
                    "target" : {
                        "node" : 3,
                        "path" : "translation"
                    }
                },
                {
                    "sampler" : 3,
                    "target" : {
                        "node" : 2,
                        "path" : "weights"
                    }
                },
                {
                    "sampler" : 4,
                    "target" : {
                        "node" : 5,
                        "path" : "translation"
                    }
                },
                {
                    "sampler" : 5,
                    "target" : {
                        "node" : 4,
                        "path" : "weights"
                    }
                }
            ],
            "name" : "Animation",
            "samplers" : [
                {
                    "input" : 16,
                    "interpolation" : "LINEAR",
                    "output" : 17
                },
                {
                    "input" : 16,
                    "interpolation" : "LINEAR",
                    "output" : 18
                },
                {
                    "input" : 16,
                    "interpolation" : "LINEAR",
                    "output" : 19
                },
                {
                    "input" : 16,
                    "interpolation" : "LINEAR",
                    "output" : 20
                },
                {
                    "input" : 16,
                    "interpolation" : "LINEAR",
                    "output" : 21
                },
                {
                    "input" : 16,
                    "interpolation" : "LINEAR",
                    "output" : 22
                }
            ]
        }
    ],
    "materials" : [
        {
            "doubleSided" : true,
            "name" : "tbpjr_gradient",
            "pbrMetallicRoughness" : {
                "baseColorTexture" : {
                    "index" : 0
                },
                "metallicFactor" : 0,
                "roughnessFactor" : 0.6000000238418579
            }
        }
    ],
    "meshes" : [
        {
            "extras" : {
                "targetNames" : [
                    "target_0"
                ]
            },
            "name" : "mesh_1",
            "primitives" : [
                {
                    "attributes" : {
                        "POSITION" : 0,
                        "TEXCOORD_0" : 1,
                        "NORMAL" : 2
                    },
                    "indices" : 3,
                    "material" : 0,
                    "targets" : [
                        {
                            "POSITION" : 4,
                            "NORMAL" : 5
                        }
                    ]
                }
            ],
            "weights" : [
                0
            ]
        },
        {
            "extras" : {
                "targetNames" : [
                    "target_0"
                ]
            },
            "name" : "mesh_2",
            "primitives" : [
                {
                    "attributes" : {
                        "POSITION" : 6,
                        "TEXCOORD_0" : 7,
                        "NORMAL" : 8
                    },
                    "indices" : 3,
                    "material" : 0,
                    "targets" : [
                        {
                            "POSITION" : 9,
                            "NORMAL" : 10
                        }
                    ]
                }
            ],
            "weights" : [
                0
            ]
        },
        {
            "extras" : {
                "targetNames" : [
                    "target_0"
                ]
            },
            "name" : "mesh_3",
            "primitives" : [
                {
                    "attributes" : {
                        "POSITION" : 11,
                        "TEXCOORD_0" : 12,
                        "NORMAL" : 13
                    },
                    "indices" : 3,
                    "material" : 0,
                    "targets" : [
                        {
                            "POSITION" : 14,
                            "NORMAL" : 15
                        }
                    ]
                }
            ],
            "weights" : [
                0
            ]
        }
    ],
    "textures" : [
        {
            "sampler" : 0,
            "source" : 0
        }
    ],
    "images" : [
        {
            "mimeType" : "image/png",
            "name" : "tbpjr_gradient_baseColor",
            "uri" : "tbpjr_gradient_baseColor.png"
        }
    ],
    "accessors" : [
        {
            "bufferView" : 0,
            "componentType" : 5126,
            "count" : 286,
            "max" : [
                3.915727138519287,
                1.3304500579833984,
                3.0443317890167236
            ],
            "min" : [
                -3.915727138519287,
                -0.29944151639938354,
                -2.0357906818389893
            ],
            "type" : "VEC3"
        },
        {
            "bufferView" : 1,
            "componentType" : 5126,
            "count" : 286,
            "type" : "VEC2"
        },
        {
            "bufferView" : 2,
            "componentType" : 5126,
            "count" : 286,
            "type" : "VEC3"
        },
        {
            "bufferView" : 3,
            "componentType" : 5123,
            "count" : 1392,
            "type" : "SCALAR"
        },
        {
            "bufferView" : 4,
            "componentType" : 5126,
            "count" : 286,
            "max" : [
                0.05745100975036621,
                0.021107763051986694,
                2.9802322387695312e-08
            ],
            "min" : [
                -0.1073765754699707,
                -0.8789349794387817,
                -1.4901161193847656e-07
            ],
            "type" : "VEC3"
        },
        {
            "bufferView" : 5,
            "componentType" : 5126,
            "count" : 286,
            "type" : "VEC3"
        },
        {
            "bufferView" : 6,
            "componentType" : 5126,
            "count" : 286,
            "max" : [
                3.915727138519287,
                1.3304500579833984,
                3.0443317890167236
            ],
            "min" : [
                -3.915727138519287,
                -0.29944151639938354,
                -2.0357906818389893
            ],
            "type" : "VEC3"
        },
        {
            "bufferView" : 7,
            "componentType" : 5126,
            "count" : 286,
            "type" : "VEC2"
        },
        {
            "bufferView" : 8,
            "componentType" : 5126,
            "count" : 286,
            "type" : "VEC3"
        },
        {
            "bufferView" : 9,
            "componentType" : 5126,
            "count" : 286,
            "max" : [
                0.05745100975036621,
                0.021107763051986694,
                2.9802322387695312e-08
            ],
            "min" : [
                -0.1073765754699707,
                -0.8789349794387817,
                -1.4901161193847656e-07
            ],
            "type" : "VEC3"
        },
        {
            "bufferView" : 10,
            "componentType" : 5126,
            "count" : 286,
            "type" : "VEC3"
        },
        {
            "bufferView" : 11,
            "componentType" : 5126,
            "count" : 286,
            "max" : [
                3.915727138519287,
                1.3304500579833984,
                3.0443317890167236
            ],
            "min" : [
                -3.915727138519287,
                -0.29944151639938354,
                -2.0357906818389893
            ],
            "type" : "VEC3"
        },
        {
            "bufferView" : 12,
            "componentType" : 5126,
            "count" : 286,
            "type" : "VEC2"
        },
        {
            "bufferView" : 13,
            "componentType" : 5126,
            "count" : 286,
            "type" : "VEC3"
        },
        {
            "bufferView" : 14,
            "componentType" : 5126,
            "count" : 286,
            "max" : [
                0.05745100975036621,
                0.021107763051986694,
                2.9802322387695312e-08
            ],
            "min" : [
                -0.1073765754699707,
                -0.8789349794387817,
                -1.4901161193847656e-07
            ],
            "type" : "VEC3"
        },
        {
            "bufferView" : 15,
            "componentType" : 5126,
            "count" : 286,
            "type" : "VEC3"
        },
        {
            "bufferView" : 16,
            "componentType" : 5126,
            "count" : 120,
            "max" : [
                4.991666669646899
            ],
            "min" : [
                0.033333336313565574
            ],
            "type" : "SCALAR"
        },
        {
            "bufferView" : 17,
            "componentType" : 5126,
            "count" : 120,
            "type" : "VEC3"
        },
        {
            "bufferView" : 18,
            "componentType" : 5126,
            "count" : 120,
            "type" : "SCALAR"
        },
        {
            "bufferView" : 19,
            "componentType" : 5126,
            "count" : 120,
            "type" : "VEC3"
        },
        {
            "bufferView" : 20,
            "componentType" : 5126,
            "count" : 120,
            "type" : "SCALAR"
        },
        {
            "bufferView" : 21,
            "componentType" : 5126,
            "count" : 120,
            "type" : "VEC3"
        },
        {
            "bufferView" : 22,
            "componentType" : 5126,
            "count" : 120,
            "type" : "SCALAR"
        }
    ],
    "bufferViews" : [
        {
            "buffer" : 0,
            "byteLength" : 3432,
            "byteOffset" : 0,
            "target" : 34962
        },
        {
            "buffer" : 0,
            "byteLength" : 2288,
            "byteOffset" : 3432,
            "target" : 34962
        },
        {
            "buffer" : 0,
            "byteLength" : 3432,
            "byteOffset" : 5720,
            "target" : 34962
        },
        {
            "buffer" : 0,
            "byteLength" : 2784,
            "byteOffset" : 9152,
            "target" : 34963
        },
        {
            "buffer" : 0,
            "byteLength" : 3432,
            "byteOffset" : 11936,
            "target" : 34962
        },
        {
            "buffer" : 0,
            "byteLength" : 3432,
            "byteOffset" : 15368,
            "target" : 34962
        },
        {
            "buffer" : 0,
            "byteLength" : 3432,
            "byteOffset" : 18800,
            "target" : 34962
        },
        {
            "buffer" : 0,
            "byteLength" : 2288,
            "byteOffset" : 22232,
            "target" : 34962
        },
        {
            "buffer" : 0,
            "byteLength" : 3432,
            "byteOffset" : 24520,
            "target" : 34962
        },
        {
            "buffer" : 0,
            "byteLength" : 3432,
            "byteOffset" : 27952,
            "target" : 34962
        },
        {
            "buffer" : 0,
            "byteLength" : 3432,
            "byteOffset" : 31384,
            "target" : 34962
        },
        {
            "buffer" : 0,
            "byteLength" : 3432,
            "byteOffset" : 34816,
            "target" : 34962
        },
        {
            "buffer" : 0,
            "byteLength" : 2288,
            "byteOffset" : 38248,
            "target" : 34962
        },
        {
            "buffer" : 0,
            "byteLength" : 3432,
            "byteOffset" : 40536,
            "target" : 34962
        },
        {
            "buffer" : 0,
            "byteLength" : 3432,
            "byteOffset" : 43968,
            "target" : 34962
        },
        {
            "buffer" : 0,
            "byteLength" : 3432,
            "byteOffset" : 47400,
            "target" : 34962
        },
        {
            "buffer" : 0,
            "byteLength" : 480,
            "byteOffset" : 50832
        },
        {
            "buffer" : 0,
            "byteLength" : 1440,
            "byteOffset" : 51312
        },
        {
            "buffer" : 0,
            "byteLength" : 480,
            "byteOffset" : 52752
        },
        {
            "buffer" : 0,
            "byteLength" : 1440,
            "byteOffset" : 53232
        },
        {
            "buffer" : 0,
            "byteLength" : 480,
            "byteOffset" : 54672
        },
        {
            "buffer" : 0,
            "byteLength" : 1440,
            "byteOffset" : 55152
        },
        {
            "buffer" : 0,
            "byteLength" : 480,
            "byteOffset" : 56592
        }
    ],
    "samplers" : [
        {
            "magFilter" : 9729,
            "minFilter" : 9987
        }
    ],
    "buffers" : [
        {
            "byteLength" : 57072,
            "uri" : "birds.bin"
        }
    ]
}
